HIERARCHY
ROOT Hips
{
	OFFSET	0.00	0.00	0.00
	CHANNELS 6 Xposition Yposition Zposition Zrotation Xrotation Yrotation
	JOINT LeftUpLeg
	{
		OFFSET	 0.126116	-0.014019	-0.065224
		CHANNELS 3 Zrotation Xrotation Yrotation
		JOINT LeftLeg
		{
			OFFSET	 0.000000	 0.000000	 0.569914
			CHANNELS 3 Zrotation Xrotation Yrotation
			JOINT LeftFoot
			{
				OFFSET	 0.000000	 0.000000	 0.544423
				CHANNELS 3 Zrotation Xrotation Yrotation
				JOINT LeftToeBase
				{
					OFFSET	 0.000000	 0.000000	 0.207117
					CHANNELS 3 Zrotation Xrotation Yrotation
					End Site
					{
						OFFSET	 0.000000	 0.000000	 0.207117
					}
				}
			}
		}
	}
	JOINT RightUpLeg
	{
		OFFSET	-0.124023	-0.008373	-0.065224
		CHANNELS 3 Zrotation Xrotation Yrotation
		JOINT RightLeg
		{
			OFFSET	 0.000000	 0.000000	 0.570047
			CHANNELS 3 Zrotation Xrotation Yrotation
			JOINT RightFoot
			{
				OFFSET	 0.000000	 0.000000	 0.544354
				CHANNELS 3 Zrotation Xrotation Yrotation
				JOINT RightToeBase
				{
					OFFSET	 0.000000	 0.000000	 0.207540
					CHANNELS 3 Zrotation Xrotation Yrotation
					End Site
					{
						OFFSET	 0.000000	 0.000000	 0.207540
					}
				}
			}
		}
	}
	JOINT Spine
	{
		OFFSET	 0.000184	-0.007763	 0.117403
		CHANNELS 3 Zrotation Xrotation Yrotation
		JOINT Spine1
		{
			OFFSET	 0.000000	 0.000000	 0.137269
			CHANNELS 3 Zrotation Xrotation Yrotation
			JOINT Spine2
			{
				OFFSET	 0.000000	 0.000000	 0.156879
				CHANNELS 3 Zrotation Xrotation Yrotation
				JOINT LeftShoulder
				{
					OFFSET	 0.080501	-0.002496	 0.160144
					CHANNELS 3 Zrotation Xrotation Yrotation
					JOINT LeftArm
					{
						OFFSET	 0.000000	 0.000000	 0.164363
						CHANNELS 3 Zrotation Xrotation Yrotation
						JOINT LeftForeArm
						{
							OFFSET	 0.000000	 0.000000	 0.364576
							CHANNELS 3 Zrotation Xrotation Yrotation
							JOINT LeftHand
							{
								OFFSET	 0.000000	 0.000000	 0.360812
								CHANNELS 3 Zrotation Xrotation Yrotation
								JOINT LeftHandIndex1
								{
									OFFSET	 0.000000	 0.000000	 0.086006
									CHANNELS 3 Zrotation Xrotation Yrotation
									JOINT LeftHandIndex2
									{
										OFFSET	 0.000000	 0.000000	 0.047236
										CHANNELS 3 Zrotation Xrotation Yrotation
										JOINT LeftHandIndex3
										{
											OFFSET	-0.004284	-0.000551	 0.038166
											CHANNELS 3 Zrotation Xrotation Yrotation
											End Site
											{
												OFFSET	-0.004284	-0.000551	 0.038166
											}
										}
									}
								}
							}
						}
					}
				}
				JOINT Neck
				{
					OFFSET	 0.000000	 0.000000	 0.176489
					CHANNELS 3 Zrotation Xrotation Yrotation
					JOINT Head
					{
						OFFSET	 0.000000	-0.001747	 0.077940
						CHANNELS 3 Zrotation Xrotation Yrotation
						End Site
						{
							OFFSET	 0.000000	-0.001747	 0.077940
						}
					}
				}
				JOINT RightShoulder
				{
					OFFSET	-0.080363	 0.000306	 0.159706
					CHANNELS 3 Zrotation Xrotation Yrotation
					JOINT RightArm
					{
						OFFSET	 0.000000	 0.000000	 0.164196
						CHANNELS 3 Zrotation Xrotation Yrotation
						JOINT RightForeArm
						{
							OFFSET	 0.000000	 0.000000	 0.365611
							CHANNELS 3 Zrotation Xrotation Yrotation
							JOINT RightHand
							{
								OFFSET	 0.000000	 0.000000	 0.360648
								CHANNELS 3 Zrotation Xrotation Yrotation
								JOINT RightHandIndex1
								{
									OFFSET	 0.000000	 0.000000	 0.069977
									CHANNELS 3 Zrotation Xrotation Yrotation
									JOINT RightHandIndex2
									{
										OFFSET	 0.000000	 0.000000	 0.052305
										CHANNELS 3 Zrotation Xrotation Yrotation
										JOINT RightHandIndex3
										{
											OFFSET	 0.009002	-0.000782	 0.042196
											CHANNELS 3 Zrotation Xrotation Yrotation
											End Site
											{
												OFFSET	 0.009002	-0.000782	 0.042196
											}
										}
									}
								}
							}
						}
					}
				}
			}
		}
	}
}
MOTION
Frames:    13
Frame Time: 0.03333334
 3.083260	 6.579228	 0.410389	-102.741100	-2.307211	-1.136213	 7.252442	 20.070630	-176.769600	-3.578369	-11.633080	 1.467793	 3.493978	 84.299230	-0.174457	-2.306919	 39.199370	-0.254368	 4.868966	-35.612940	-177.947400	 1.510430	-44.159550	 5.422071	 103.219300	 89.861520	-97.312260	 2.372281	 30.853910	 0.054264	 32.936650	 3.655956	 2.413016	-9.509905	-0.895313	 0.374387	-11.225030	-3.018465	-1.535081	-91.776180	 78.527400	-180.000000	 35.600650	 60.590040	-53.628100	 25.280260	-32.292170	-33.203680	 4.555801	 5.206350	-5.387666	-3.812334	 37.924440	-2.927599	-2.450526	 36.184240	 0.754587	-1.378229	 35.397820	-2.634230	 1.215602	 2.151487	-4.950483	-1.507697	-9.459856	 2.880569	 89.782120	 78.203870	 180.000000	-38.076810	 71.954610	 35.576190	-39.369080	-25.717820	 19.661220	-14.706600	 3.981575	 9.570790	 6.437017	 35.671460	-0.771858	 2.830251	 35.756010	-7.813440	-2.350882	 35.473990	 5.254307
 3.035528	 6.591633	 0.408644	-102.299300	-1.970757	-1.292461	 7.415558	 22.077300	-177.072700	-3.446912	-11.625530	 1.526784	 4.116232	 84.414960	-0.528825	-2.277029	 41.745080	-0.323443	 5.252204	-36.057540	-177.523700	-0.079988	-39.349990	 3.966662	 149.120000	 89.520710	-143.821400	 2.363761	 32.272860	 0.086440	 32.632440	 3.414986	 2.224839	-9.572711	-1.057334	 0.279308	-11.246390	-3.186346	-1.591708	-91.776180	 78.527400	-180.000000	 36.258290	 60.549510	-54.627530	 26.211330	-33.890450	-33.550770	 4.433487	 5.224888	-5.383937	-3.812334	 37.924440	-2.927599	-2.450526	 36.184240	 0.754587	-1.378229	 35.397820	-2.634230	 1.226598	 2.151405	-4.987998	-1.470757	-9.638118	 3.351120	 89.782070	 78.203930	-180.000000	-36.898620	 72.649690	 34.207680	-40.958020	-25.770110	 18.486530	-15.116260	 4.007397	 9.561137	 6.437017	 35.671460	-0.771858	 2.830251	 35.756010	-7.813440	-2.350882	 35.473990	 5.254307
 2.976421	 6.607596	 0.406607	-101.736800	-1.961476	-1.323498	 7.744701	 24.626290	-177.936800	-2.909446	-11.608820	 1.650486	 5.021530	 83.550990	-0.793314	-2.227129	 45.218190	-0.425571	 4.945569	-35.830480	-177.445200	 0.097466	-37.761660	 3.742436	 150.668500	 89.410170	-145.328200	 2.362020	 32.542440	 0.092638	 31.595440	 3.308889	 1.961811	-9.653590	-1.165224	 0.083307	-11.204610	-3.281760	-1.668279	-91.776180	 78.527420	-180.000000	 37.459210	 61.075510	-55.534510	 27.199290	-34.650340	-33.103940	 4.471061	 5.268638	-5.384293	-3.812334	 37.924440	-2.927599	-2.450526	 36.184240	 0.754587	-1.378229	 35.397820	-2.634230	 1.268386	 2.075561	-5.035082	-1.403339	-9.695115	 3.871289	 89.782120	 78.203930	 180.000000	-35.678580	 73.274140	 32.855990	-42.315870	-25.398600	 17.289140	-15.666480	 4.032458	 9.547350	 6.437017	 35.671460	-0.771858	 2.830251	 35.756010	-7.813440	-2.350882	 35.473990	 5.254307
 2.917954	 6.624772	 0.404667	-101.207300	-2.087409	-1.304981	 8.191257	 27.069830	-179.175600	-2.082507	-11.585450	 1.808746	 5.745245	 81.338890	-0.615026	-2.181489	 47.824610	-0.509552	 4.831314	-34.876880	-177.665900	 1.059395	-38.906970	 4.459600	 70.709520	 89.756910	-64.724790	 2.374018	 30.540390	 0.047263	 30.088980	 3.194695	 1.873793	-9.719047	-1.177068	-0.147630	-11.090070	-3.152523	-1.731823	-91.776180	 78.527400	-180.000000	 38.978840	 61.906230	-56.074350	 27.961190	-34.380600	-32.182420	 4.471156	 5.329529	-5.388926	-3.812334	 37.924440	-2.927599	-2.450526	 36.184240	 0.754587	-1.378229	 35.397820	-2.634230	 1.386283	 2.281963	-5.110454	-1.299015	-9.839905	 4.279570	 89.782090	 78.203830	-180.000000	-34.881680	 73.673570	 31.979680	-43.092700	-24.802310	 16.433010	-16.146300	 4.053973	 9.533273	 6.437017	 35.671460	-0.771858	 2.830251	 35.756010	-7.813440	-2.350882	 35.473990	 5.254307
 2.838647	 6.649184	 0.402660	-100.332900	-2.239933	-1.167957	 8.929472	 30.094920	 178.670100	-1.044096	-11.560930	 1.961532	 5.756178	 75.872740	 0.515532	-2.113707	 51.025330	-0.623514	 4.121506	-32.891570	-178.495600	 3.331378	-41.889270	 6.036056	 5.679490	 88.428410	 1.384648	 2.382478	 28.868660	 0.010418	 27.320060	 2.903322	 1.650523	-9.882248	-1.176777	-0.476924	-10.879040	-2.864331	-1.887520	-91.776180	 78.527400	-180.000000	 41.135500	 63.443510	-55.948930	 28.955340	-32.789780	-30.185670	 4.687605	 5.364846	-5.386299	-3.812334	 37.924440	-2.927599	-2.450526	 36.184240	 0.754587	-1.378229	 35.397820	-2.634230	 1.567131	 2.793704	-5.107847	-1.163766	-9.968913	 4.565588	 89.782110	 78.203870	 180.000000	-33.006600	 74.055330	 29.612190	-43.128990	-23.915450	 15.808790	-16.573690	 4.087808	 9.520385	 6.437017	 35.671460	-0.771858	 2.830251	 35.756010	-7.813440	-2.350882	 35.473990	 5.254307
 2.793718	 6.662856	 0.403016	-99.667400	-2.309027	-1.040550	 9.409394	 31.658690	 177.391300	-0.969739	-11.564440	 1.940908	 5.440015	 71.020940	 1.086905	-2.103761	 51.442490	-0.639403	 3.290684	-31.708440	-178.961200	 4.363286	-43.593710	 6.542166	 3.389683	 86.709910	 3.716582	 2.387856	 27.636290	-0.016196	 25.440320	 2.785594	 1.365383	-9.988758	-1.140170	-0.623122	-10.810520	-2.757253	-1.985351	-91.776180	 78.527400	 180.000000	 42.461010	 64.500080	-55.820510	 29.595890	-31.334880	-28.585600	 5.083893	 5.401608	-5.388208	-3.812334	 37.924440	-2.927599	-2.450526	 36.184240	 0.754587	-1.378229	 35.397820	-2.634230	 1.637533	 3.009809	-5.034239	-1.115436	-9.896575	 4.581138	 89.782120	 78.203930	 180.000000	-32.118890	 74.166440	 28.463950	-42.613480	-23.433470	 15.741680	-16.612660	 4.108259	 9.516390	 6.437017	 35.671460	-0.771858	 2.830251	 35.756010	-7.813440	-2.350882	 35.473990	 5.254307
 2.739035	 6.682160	 0.407073	-98.724280	-2.600725	-1.188158	 7.605259	 27.309930	 176.831200	-1.006112	-22.984000	 1.753313	 3.715971	 66.793350	 0.192808	-2.141968	 49.771140	-0.577265	 2.191042	-30.157480	-179.238700	 5.124101	-46.160690	 6.812237	 3.541025	 84.396220	 3.061429	 2.395740	 25.431990	-0.062774	 22.766910	 2.461964	 1.369779	-10.083050	-1.012578	-0.709994	-10.894060	-2.534405	-2.019723	-91.776180	 78.527400	-180.000000	 44.005760	 66.040710	-55.808460	 30.121190	-28.679550	-25.984250	 5.784496	 5.433024	-5.386679	-3.812334	 37.924440	-2.927599	-2.450526	 36.184240	 0.754587	-1.378229	 35.397820	-2.634230	 1.689357	 3.048375	-4.875288	-1.075976	-9.618034	 4.456612	 89.782120	 78.203870	 180.000000	-32.128990	 74.118200	 28.599720	-41.599470	-22.657070	 15.781720	-16.586650	 4.135308	 9.511209	 6.437017	 35.671460	-0.771858	 2.830251	 35.756010	-7.813440	-2.350882	 35.473990	 5.254307
 2.684276	 6.703520	 0.413079	-97.903920	-2.783511	-1.370266	 7.583195	 18.940940	 175.141800	-1.264449	-39.797990	 1.405881	 2.416603	 60.914360	 0.488423	-2.245755	 44.012840	-0.388977	 1.501053	-28.326780	-179.627500	 5.637002	-48.005970	 7.027689	 3.528297	 84.140440	 2.797692	 2.404580	 21.586570	-0.141423	 19.623600	 2.284115	 1.664809	-10.100100	-0.955810	-0.765326	-10.851750	-2.190375	-1.993004	-91.776180	 78.527400	-180.000000	 44.472450	 67.892670	-54.785100	 29.889550	-25.389230	-23.134380	 6.755869	 5.437176	-5.376074	-3.812334	 37.924440	-2.927599	-2.450526	 36.184240	 0.754587	-1.378229	 35.397820	-2.634230	 1.641138	 2.933603	-4.736978	-1.134386	-9.169806	 4.128638	 89.782120	 78.203870	 180.000000	-33.019760	 73.685160	 30.036290	-40.366340	-21.674720	 15.906450	-16.649730	 4.168841	 9.508058	 6.437017	 35.671460	-0.771858	 2.830251	 35.756010	-7.813440	-2.350882	 35.473990	 5.254307
 2.629893	 6.724061	 0.419069	-96.896480	-3.149030	 0.621710	 7.612639	 12.047970	 171.498400	-2.647483	-53.721120	-0.791634	 0.394848	 55.075610	 1.029442	-2.352432	 34.148880	-0.128576	 0.593265	-24.181630	 177.709100	 6.634130	-47.381310	 7.009069	 2.754695	 84.949680	 3.771749	 2.407592	 18.206020	-0.208485	 15.761370	 3.311231	-0.435712	-10.136690	-0.958905	-1.201795	-10.550660	-2.640085	-2.144962	-91.776180	 78.527400	-180.000000	 43.378060	 69.789920	-52.427870	 28.208410	-22.093680	-20.846910	 7.381035	 5.423660	-5.359026	-3.812334	 37.924440	-2.927599	-2.450526	 36.184240	 0.754587	-1.378229	 35.397820	-2.634230	 1.486811	 2.897516	-4.623295	-1.309828	-8.912559	 3.589116	 89.782120	 78.203870	 180.000000	-34.524640	 72.892420	 32.477190	-38.856370	-20.634630	 16.169890	-16.664540	 4.205774	 9.508156	 6.437017	 35.671460	-0.771858	 2.830251	 35.756010	-7.813440	-2.350882	 35.473990	 5.254307
 2.582488	 6.741712	 0.424203	-95.787350	-3.158421	 2.221244	 6.326710	 5.143022	 169.589400	-4.877726	-64.291560	-4.569267	-0.797165	 56.419250	 0.575887	-2.359514	 33.155800	-0.105280	 0.246596	-20.694860	 175.546000	 7.338347	-46.008830	 6.924943	 1.701884	 86.239950	 5.170886	 2.407690	 17.520920	-0.221894	 12.022810	 3.699032	-2.027725	-10.238440	-0.986682	-1.559919	-10.670550	-3.116740	-2.210992	-91.776180	 78.527400	-180.000000	 41.972320	 71.118980	-50.326330	 25.491570	-19.209510	-19.343470	 7.316733	 5.405651	-5.343319	-3.812334	 37.924440	-2.927599	-2.450526	 36.184240	 0.754587	-1.378229	 35.397820	-2.634230	 1.304835	 2.948295	-4.503547	-1.471746	-9.159053	 3.109963	 89.782110	 78.203930	 180.000000	-36.551350	 71.884020	 36.153750	-37.034330	-19.676150	 16.560170	-16.646140	 4.238505	 9.507691	 6.437017	 35.671460	-0.771858	 2.830251	 35.756010	-7.813440	-2.350882	 35.473990	 5.254307
 2.536191	 6.757511	 0.428237	-94.946890	-3.145691	 2.730370	 4.304440	-1.552402	 169.866900	-6.361264	-71.838170	-7.735713	-1.175789	 61.493270	 0.348767	-2.340167	 35.706820	-0.165991	 0.294696	-17.851390	 174.585600	 7.595327	-45.114040	 6.866547	-0.518406	 88.041850	 7.648826	 2.407677	 17.746900	-0.217480	 8.318565	 3.676695	-2.518735	-10.235700	-0.988074	-1.572055	-10.999430	-3.389395	-2.126056	-91.776180	 78.527400	-180.000000	 40.106580	 71.932080	-47.859700	 22.538880	-16.825260	-18.355860	 7.300366	 5.401020	-5.331610	-3.812334	 37.924440	-2.927599	-2.450526	 36.184240	 0.754587	-1.378229	 35.397820	-2.634230	 1.088994	 2.985147	-4.363418	-1.644943	-9.450044	 2.554133	 89.782070	 78.203930	-180.000000	-38.049970	 70.708340	 39.793660	-34.639150	-18.766460	 17.135790	-16.648260	 4.275675	 9.509525	 6.437017	 35.671460	-0.771858	 2.830251	 35.756010	-7.813440	-2.350882	 35.473990	 5.254307
 2.492298	 6.772003	 0.430709	-94.772440	-3.151775	 2.965131	 2.518619	-7.451441	 170.623200	-6.386829	-75.491230	-9.018244	-1.046113	 66.975720	 0.093553	-2.311159	 38.799270	-0.243899	 0.606140	-15.399180	 173.927700	 7.514615	-44.659680	 6.812762	-31.194920	 89.756910	 38.461550	 2.407586	 18.219500	-0.208226	 4.916234	 3.865472	-2.699003	-9.960204	-0.974736	-1.412697	-11.166960	-3.503991	-1.880729	-91.776180	 78.527380	-180.000000	 38.292940	 72.304250	-44.947650	 19.957050	-15.278540	-18.139820	 7.566317	 5.427848	-5.327490	-3.812334	 37.924440	-2.927599	-2.450526	 36.184240	 0.754587	-1.378229	 35.397820	-2.634230	 0.806587	 2.980787	-4.144094	-1.889324	-9.387082	 1.714752	 89.782120	 78.203870	 180.000000	-38.796920	 69.416930	 42.647690	-31.831100	-17.989180	 17.976180	-16.542060	 4.320381	 9.518553	 6.437017	 35.671460	-0.771858	 2.830251	 35.756010	-7.813440	-2.350882	 35.473990	 5.254307
 2.444592	 6.785634	 0.431144	-94.739800	-3.015934	 3.856091	 1.249786	-12.572260	 171.080400	-7.488137	-76.177130	-10.807170	-1.437060	 74.023210	-0.268878	-2.291114	 40.600090	-0.291834	 0.746378	-12.692740	 172.772000	 7.358458	-44.393040	 6.532605	-172.410600	 88.595840	 179.518600	 2.406688	 19.822810	-0.176623	 1.212265	 4.112742	-3.744351	-9.554008	-0.964333	-1.362460	-11.413740	-3.863559	-1.572572	-91.776180	 78.527420	-180.000000	 37.682080	 72.352070	-42.626010	 16.881570	-14.259060	-19.032560	 7.350950	 5.484499	-5.336039	-3.812334	 37.924440	-2.927599	-2.450526	 36.184240	 0.754587	-1.378229	 35.397820	-2.634230	 0.476542	 3.003729	-3.872229	-2.151025	-9.149093	 0.966289	 89.782100	 78.203870	-180.000000	-39.162930	 67.801260	 44.948640	-28.194490	-17.471070	 19.626600	-15.965450	 4.381996	 9.541334	 6.437017	 35.671460	-0.771858	 2.830251	 35.756010	-7.813440	-2.350882	 35.473990	 5.254307
